<svg xmlns="http://www.w3.org/2000/svg" viewBox="0 0 512 512" width="512" height="512">
  <rect width="512" height="512" rx="112" fill="#5B2A86" />
  <g transform="translate(52 51) scale(1.34)">
    <path d="M80 250 V124 H66 L152.5 56 L239 124 H225 V250 Z" fill="#ffffff" />
    <g fill="none" stroke="#5B2A86" stroke-width="9" stroke-linecap="round">
      <path d="M152.5 60 L152.5 84 A16 16 0 0 0 152.5 116 L152.5 150" />
      <path d="M152.5 150 L152.5 182 A16 16 0 1 0 152.5 214 L152.5 250" />
      <path d="M80 150 L100 150 A16 16 0 0 1 132 150 L152.5 150" />
      <path d="M152.5 150 L173 150 A16 16 0 0 0 205 150 L225 150" />
    </g>
  </g>
</svg>
